<svg xmlns="http://www.w3.org/2000/svg" viewBox="0 0 1200 360" role="img" aria-labelledby="title desc">
<title id="title">Helios Observatory Miku README Header</title><desc id="desc">Wide README hero banner with original Miku-inspired orbital mark and Helios Observatory technical styling.</desc>

<defs>
  <linearGradient id="tealGlow" x1="0" y1="0" x2="1" y2="1"><stop stop-color="#78FFF1"/><stop offset=".46" stop-color="#39C5BB"/><stop offset="1" stop-color="#22E6FF"/></linearGradient>
  <linearGradient id="spaceFade" x1="0" y1="0" x2="1" y2="1"><stop stop-color="#050816"/><stop offset="1" stop-color="#0B1220"/></linearGradient>
  <linearGradient id="magentaGlow" x1="0" y1="0" x2="1" y2="0"><stop stop-color="#E653A7"/><stop offset="1" stop-color="#FF5B6E"/></linearGradient>
  <radialGradient id="halo"><stop stop-color="#39C5BB" stop-opacity=".42"/><stop offset="1" stop-color="#39C5BB" stop-opacity="0"/></radialGradient>
  <filter id="softGlow" x="-80%" y="-80%" width="260%" height="260%"><feGaussianBlur stdDeviation="7" result="b"/><feMerge><feMergeNode in="b"/><feMergeNode in="SourceGraphic"/></feMerge></filter>
  <filter id="tinyGlow" x="-80%" y="-80%" width="260%" height="260%"><feGaussianBlur stdDeviation="2" result="b"/><feMerge><feMergeNode in="b"/><feMergeNode in="SourceGraphic"/></feMerge></filter>
</defs><rect width="1200" height="360" rx="42" fill="url(#spaceFade)"/><circle cx="70" cy="60" r="2" fill="#F5FBFF" opacity="0.7"/><circle cx="150" cy="250" r="1.5" fill="#F5FBFF" opacity="0.5"/><circle cx="245" cy="48" r="1.8" fill="#F5FBFF" opacity="0.8"/><circle cx="352" cy="268" r="1.2" fill="#F5FBFF" opacity="0.5"/><circle cx="570" cy="58" r="1.4" fill="#F5FBFF" opacity="0.7"/><circle cx="720" cy="250" r="1.5" fill="#F5FBFF" opacity="0.55"/><circle cx="905" cy="72" r="2" fill="#F5FBFF" opacity="0.8"/><circle cx="1080" cy="242" r="1.3" fill="#F5FBFF" opacity="0.5"/><circle cx="1142" cy="94" r="1.1" fill="#F5FBFF" opacity="0.55"/><circle cx="880" cy="285" r="1.2" fill="#F5FBFF" opacity="0.4"/>
<path d="M0 298 Q285 244 520 290 T1200 276 V360 H0Z" fill="#07101D"/>
<path d="M-80 294 C220 136 515 124 812 246 S1180 312 1280 210" fill="none" stroke="#39C5BB" stroke-width="3" stroke-opacity=".52"/>
<path d="M-50 328 C240 222 570 202 820 286 S1130 308 1250 244" fill="none" stroke="#E653A7" stroke-width="2" stroke-opacity=".30"/>
<g transform="translate(26 16)">
<g>
<circle cx="180" cy="164" r="133.39999999999998" fill="url(#halo)"/>
<ellipse cx="180" cy="164" rx="128.79999999999998" ry="54.05" fill="none" stroke="#9DB0C4" stroke-opacity=".34" stroke-width="2.53" transform="rotate(-18 180 164)"/>
<ellipse cx="180" cy="164" rx="109.24999999999999" ry="43.699999999999996" fill="none" stroke="url(#tealGlow)" stroke-opacity=".68" stroke-width="3.6799999999999997" stroke-dasharray="13.799999999999999 10.35" transform="rotate(28 180 164)"/>
<path d="M 147.8 138.7 C 97.2 81.2, 44.30000000000001 81.2, 35.10000000000002 168.6 C 51.20000000000002 138.7, 75.35000000000001 149.05, 108.7 183.55 C 75.35000000000001 220.35, 53.500000000000014 256.0, 65.00000000000001 291.65 C 115.60000000000001 237.6, 145.5 213.45, 163.9 184.7 Z" fill="url(#tealGlow)" opacity=".94"/>
<path d="M 212.2 138.7 C 262.8 81.2, 315.7 81.2, 324.9 168.6 C 308.79999999999995 138.7, 284.65 149.05, 251.3 183.55 C 284.65 220.35, 306.5 256.0, 295.0 291.65 C 244.39999999999998 237.6, 214.5 213.45, 196.1 184.7 Z" fill="url(#tealGlow)" opacity=".94"/>
<circle cx="180" cy="160.55" r="40.25" fill="#101923" stroke="#78FFF1" stroke-width="3.4499999999999997"/>
<path d="M 145.5 149.05 Q 180 115.7 214.5 149.05" fill="none" stroke="url(#tealGlow)" stroke-width="13.799999999999999" stroke-linecap="round"/>
<path d="M 162.75 169.75 Q 180 180.1 197.25 169.75" fill="none" stroke="#F5FBFF" stroke-opacity=".9" stroke-width="2.3" stroke-linecap="round"/>
<circle cx="165.05" cy="160.55" r="3.9099999999999997" fill="#22E6FF"/><circle cx="194.95" cy="160.55" r="3.9099999999999997" fill="#22E6FF"/>
<path d="M 283.5 97.30000000000001 l 5.75 13.799999999999999 l 14.95 1.15 l -11.5 9.2 l 3.4499999999999997 14.95 l -12.649999999999999 -8.049999999999999 l -12.649999999999999 8.049999999999999 l 3.4499999999999997 -14.95 l -11.5 -9.2 l 14.95 -1.15 z" fill="#FFD166" filter="url(#tinyGlow)"/>
<circle cx="70.75000000000001" cy="236.45" r="5.75" fill="#E653A7" filter="url(#tinyGlow)"/>
</g></g>
<g transform="translate(420 94)"><text fill="#F5FBFF" font-family="Inter,Arial,sans-serif" font-weight="900" font-size="67" letter-spacing="5">HELIOS OBSERVATORY</text><text y="60" fill="#39C5BB" font-family="Inter,Arial,sans-serif" font-weight="700" font-size="22" letter-spacing="6">A LIVING ORRERY · MIKU ORBITAL EDITION</text><line y1="82" y2="82" x2="680" stroke="#39C5BB" stroke-opacity=".45"/><text y="114" fill="#9DB0C4" font-family="Inter,Arial,sans-serif" font-size="17" letter-spacing="1.2">PLANETS · MOONS · EVENTS · OORT FRONTIER · DISTANCE LAB</text><text y="151" fill="#F5FBFF" fill-opacity=".8" font-family="Inter,Arial,sans-serif" font-size="15">Unofficial fan-inspired visual identity. No NASA/Crypton affiliation implied.</text></g>

</svg>